<?xml version="1.0" encoding="UTF-8"?>
<!DOCTYPE svg PUBLIC "-//W3C//DTD SVG 1.1//EN" "http://www.w3.org/Graphics/SVG/1.1/DTD/svg11.dtd">
<!-- Creator: CorelDRAW 2020 (64-Bit) -->
<svg xmlns="http://www.w3.org/2000/svg" xml:space="preserve" width="34mm" height="8mm" version="1.1" style="shape-rendering:geometricPrecision; text-rendering:geometricPrecision; image-rendering:optimizeQuality; fill-rule:evenodd; clip-rule:evenodd"
viewBox="0 0 3400 800"
 xmlns:xlink="http://www.w3.org/1999/xlink"
 xmlns:xodm="http://www.corel.com/coreldraw/odm/2003">
 <defs>
  <style type="text/css">
   <![CDATA[
    .fil0 {fill:white;fill-rule:nonzero}
    .fil1 {fill:url(#id0);fill-rule:nonzero}
   ]]>
  </style>
  <linearGradient id="id0" gradientUnits="userSpaceOnUse" x1="2237.59" y1="408.74" x2="3326.21" y2="408.74">
   <stop offset="0" style="stop-opacity:1; stop-color:#FF55A1"/>
   <stop offset="0.619608" style="stop-opacity:1; stop-color:#FF5681"/>
   <stop offset="1" style="stop-opacity:1; stop-color:#FF5860"/>
  </linearGradient>
 </defs>
 <g id="Capa_x0020_1">
  <metadata id="CorelCorpID_0Corel-Layer"/>
  <path class="fil0" d="M329.65 150.85c56.69,0 112.77,14.64 168.04,43.93l-36.25 90.58c-49.13,-21.14 -92.24,-31.76 -129.08,-31.76 -49.12,0 -85.84,13.8 -110.17,41.32 -24.32,27.51 -36.49,64 -36.49,109.46 0,46.88 12.87,84.9 38.73,114.19 25.87,29.29 63.77,43.93 113.84,43.93 39.68,0 85.02,-12.52 135.92,-37.67l29.04 92.7c-57.14,32.47 -118.08,48.89 -182.67,49.13 -74.62,0 -136.63,-23.5 -185.76,-70.62 -49.12,-47.01 -73.67,-108.88 -73.67,-185.4 0,-74.75 24.08,-136.74 72.27,-185.98 48.28,-49.24 113.59,-73.81 196.25,-73.81zm480.85 515.81c-78.9,0 -143.25,-24.22 -193.08,-72.62 -49.84,-48.42 -74.74,-110.3 -74.74,-185.53 0,-74.63 25.27,-136.27 75.8,-184.92 50.42,-48.52 114.42,-72.74 192.02,-72.74 78.88,0 143.11,24.22 192.7,72.62 49.47,48.42 74.28,110.18 74.28,185.04 0,74.76 -25.04,136.52 -75.33,185.16 -50.31,48.65 -114.2,72.99 -191.65,72.99zm-106.4 -145.38c25.02,29.41 60.45,44.05 106.4,44.05 45.8,0 81.23,-14.64 106.02,-44.05 24.81,-29.27 37.21,-66.83 37.21,-112.77 0,-46.28 -12.17,-83.72 -36.61,-112.17 -24.33,-28.47 -59.86,-42.74 -106.62,-42.74 -46.9,0 -82.55,14.27 -107.12,42.74 -24.55,28.45 -36.84,65.89 -36.84,112.17 0,45.94 12.52,83.5 37.56,112.77zm700.01 -370.43c56.69,0 112.77,14.64 168.04,43.93l-36.26 90.58c-49.12,-21.14 -92.23,-31.76 -129.07,-31.76 -49.12,0 -85.84,13.8 -110.18,41.32 -24.31,27.51 -36.48,64 -36.48,109.46 0,46.88 12.87,84.9 38.73,114.19 25.87,29.29 63.76,43.93 113.84,43.93 39.68,0 85.02,-12.52 135.92,-37.67l29.04 92.7c-57.14,32.47 -118.08,48.89 -182.67,49.13 -74.63,0 -136.64,-23.5 -185.76,-70.62 -49.12,-47.01 -73.67,-108.88 -73.67,-185.4 0,-74.75 24.08,-136.74 72.27,-185.98 48.28,-49.24 113.59,-73.81 196.25,-73.81zm480.84 515.81c-78.89,0 -143.25,-24.22 -193.07,-72.62 -49.84,-48.42 -74.75,-110.3 -74.75,-185.53 0,-74.63 25.28,-136.27 75.8,-184.92 50.43,-48.52 114.43,-72.74 192.02,-72.74 78.88,0 143.12,24.22 192.71,72.62 49.47,48.42 74.28,110.18 74.28,185.04 0,74.76 -25.04,136.52 -75.34,185.16 -50.31,48.65 -114.19,72.99 -191.65,72.99zm-106.39 -145.38c25.02,29.41 60.45,44.05 106.39,44.05 45.81,0 81.24,-14.64 106.03,-44.05 24.8,-29.27 37.2,-66.83 37.2,-112.77 0,-46.28 -12.16,-83.72 -36.6,-112.17 -24.33,-28.47 -59.87,-42.74 -106.63,-42.74 -46.89,0 -82.54,14.27 -107.11,42.74 -24.55,28.45 -36.84,65.89 -36.84,112.17 0,45.94 12.52,83.5 37.56,112.77z"/>
  <path class="fil1" d="M2508.83 370.5l212.79 0 0 235.22c-67.55,40.62 -139.45,60.94 -215.5,60.94 -84.21,0 -149.98,-23.99 -197.45,-71.92 -47.34,-48.07 -71.08,-109.34 -71.08,-184.1 0,-76.52 24.67,-138.99 74.03,-187.29 49.37,-48.4 117.27,-72.5 203.82,-72.5 36.85,0 72.62,3.9 107.35,11.93 34.71,7.92 60.1,16.42 75.91,25.39l-34.59 92.34c-0.82,-0.35 -6.49,-2.24 -16.89,-5.31 -10.39,-3.08 -16.77,-4.85 -19.25,-5.32 -2.35,-0.47 -8.15,-2.01 -17.12,-4.37 -8.97,-2.47 -15.58,-4.01 -19.83,-4.72 -4.25,-0.58 -10.16,-1.54 -17.72,-2.71 -7.43,-1.19 -14.51,-2.01 -21.01,-2.36 -6.63,-0.48 -13.47,-0.72 -20.67,-0.72 -59.51,0 -102.61,14.41 -129.3,43.23 -26.82,28.81 -40.16,66.71 -40.16,113.83 0,46.76 12.41,84.55 37.21,113.47 24.79,28.82 64.59,43.23 119.5,43.23 30.69,0 62.23,-4.48 94.81,-13.47l0 -96.94 -104.85 0 0 -87.85zm550.4 296.16c-78.9,0 -143.25,-24.22 -193.08,-72.62 -49.84,-48.42 -74.74,-110.3 -74.74,-185.53 0,-74.63 25.27,-136.27 75.8,-184.92 50.43,-48.52 114.43,-72.74 192.02,-72.74 78.88,0 143.11,24.22 192.7,72.62 49.48,48.42 74.28,110.18 74.28,185.04 0,74.76 -25.04,136.52 -75.33,185.16 -50.31,48.65 -114.2,72.99 -191.65,72.99zm-106.4 -145.38c25.02,29.41 60.46,44.05 106.4,44.05 45.81,0 81.24,-14.64 106.02,-44.05 24.81,-29.27 37.21,-66.83 37.21,-112.77 0,-46.28 -12.17,-83.72 -36.6,-112.17 -24.34,-28.47 -59.87,-42.74 -106.63,-42.74 -46.9,0 -82.55,14.27 -107.12,42.74 -24.55,28.45 -36.83,65.89 -36.83,112.17 0,45.94 12.51,83.5 37.55,112.77z"/>
 </g>
</svg>
